<svg width="134" height="22" viewBox="0 0 134 22" fill="none" xmlns="http://www.w3.org/2000/svg">
<g clip-path="url(#clip0_3_184)">
<path d="M18.27 21.66L11.29 16.63L4.23 21.55L6.86 13.36L0 8.16L8.6 8.13L11.43 0L14.11 8.17L22.72 8.35L15.77 13.43L18.27 21.66Z" fill="#462E8D"/>
</g>
<g clip-path="url(#clip1_3_184)">
<path d="M45.99 21.66L39.01 16.63L31.95 21.55L34.58 13.36L27.72 8.16L36.32 8.13L39.15 0L41.83 8.17L50.44 8.35L43.49 13.43L45.99 21.66Z" fill="#462E8D"/>
</g>
<g clip-path="url(#clip2_3_184)">
<path d="M73.71 21.66L66.73 16.63L59.67 21.55L62.3 13.36L55.44 8.16L64.04 8.13L66.87 0L69.55 8.17L78.16 8.35L71.21 13.43L73.71 21.66Z" fill="#462E8D"/>
</g>
<g clip-path="url(#clip3_3_184)">
<path d="M101.43 21.66L94.45 16.63L87.39 21.55L90.02 13.36L83.16 8.16L91.76 8.13L94.59 0L97.27 8.17L105.88 8.35L98.93 13.43L101.43 21.66Z" fill="#462E8D"/>
</g>
<g clip-path="url(#clip4_3_184)">
<path d="M129.15 21.66L122.17 16.63L115.11 21.55L117.74 13.36L110.88 8.16L119.48 8.13L122.31 0L124.99 8.17L133.6 8.35L126.65 13.43L129.15 21.66Z" fill="#462E8D"/>
</g>
<defs>
<clipPath id="clip0_3_184">
<rect width="22.72" height="21.66" fill="white"/>
</clipPath>
<clipPath id="clip1_3_184">
<rect width="22.72" height="21.66" fill="white" transform="translate(27.72)"/>
</clipPath>
<clipPath id="clip2_3_184">
<rect width="22.72" height="21.66" fill="white" transform="translate(55.44)"/>
</clipPath>
<clipPath id="clip3_3_184">
<rect width="22.72" height="21.66" fill="white" transform="translate(83.16)"/>
</clipPath>
<clipPath id="clip4_3_184">
<rect width="22.72" height="21.66" fill="white" transform="translate(110.88)"/>
</clipPath>
</defs>
</svg>
